HIERARCHY
ROOT Pelvis
{
	OFFSET -0.217368 -24.078917 2.858379
	CHANNELS 6 Xposition Yposition Zposition Zrotation Yrotation Xrotation 
	JOINT Left_hip
	{
		OFFSET 5.858135 -8.228005 -1.766408
		CHANNELS 3 Zrotation Yrotation Xrotation
		JOINT Left_knee
		{
			OFFSET 4.345143 -38.646942 0.803700
			CHANNELS 3 Zrotation Yrotation Xrotation
			JOINT Left_ankle
			{
				OFFSET -1.479033 -42.687447 -3.742800
				CHANNELS 3 Zrotation Yrotation Xrotation
				JOINT Left_foot
				{
					OFFSET 4.105436 -6.028605 12.204244
					CHANNELS 3 Zrotation Yrotation Xrotation
					End Site
					{
						OFFSET 0.000000 0.000000 0.000000
					}
				}
			}
		}
	}
	JOINT Right_hip
	{
		OFFSET -6.030973 -9.051328 -1.354253
		CHANNELS 3 Zrotation Yrotation Xrotation
		JOINT Right_knee
		{
			OFFSET -4.325663 -38.368790 -0.484304
			CHANNELS 3 Zrotation Yrotation Xrotation
			JOINT Right_ankle
			{
				OFFSET 1.905555 -42.004566 -3.456167
				CHANNELS 3 Zrotation Yrotation Xrotation
				JOINT Right_foot
				{
					OFFSET -3.483987 -6.210554 13.032330
					CHANNELS 3 Zrotation Yrotation Xrotation
					End Site
					{
						OFFSET 0.000000 0.000000 0.000000
					}
				}
			}
		}
	}
	JOINT Spine1
	{
		OFFSET 0.443945 12.440353 -3.838522
		CHANNELS 3 Zrotation Yrotation Xrotation
		JOINT Spine2
		{
			OFFSET 0.448844 13.795640 2.682033
			CHANNELS 3 Zrotation Yrotation Xrotation
			JOINT Spine3
			{
				OFFSET -0.226460 5.603239 0.285504
				CHANNELS 3 Zrotation Yrotation Xrotation
				JOINT Neck
				{
					OFFSET -1.339018 21.163553 -3.346758
					CHANNELS 3 Zrotation Yrotation Xrotation
					JOINT Head
					{
						OFFSET 1.011321 8.893734 5.040987
						CHANNELS 3 Zrotation Yrotation Xrotation
						End Site
						{
							OFFSET 0.000000 0.000000 0.000000
						}
					}
				}
				JOINT Left_collar
				{
					OFFSET 7.170247 11.399971 -1.889817
					CHANNELS 3 Zrotation Yrotation Xrotation
					JOINT Left_shoulder
					{
						OFFSET 12.292140 4.520507 -1.904600
						CHANNELS 3 Zrotation Yrotation Xrotation
						JOINT Left_elbow
						{
							OFFSET 25.533188 -1.564902 -2.294648
							CHANNELS 3 Zrotation Yrotation Xrotation
							JOINT Left_wrist
							{
								OFFSET 26.570929 1.269810 -0.737473
								CHANNELS 3 Zrotation Yrotation Xrotation
								JOINT Left_palm
								{
									OFFSET 8.669054 -1.063602 -1.559429
									CHANNELS 3 Zrotation Yrotation Xrotation
									End Site
									{
										OFFSET 0.000000 0.000000 0.000000
									}
								}
							}
						}
					}
				}
				JOINT Right_collar
				{
					OFFSET -8.295364 11.247234 -2.370738
					CHANNELS 3 Zrotation Yrotation Xrotation
					JOINT Right_shoulder
					{
						OFFSET -11.322830 4.685326 -0.847207
						CHANNELS 3 Zrotation Yrotation Xrotation
						JOINT Right_elbow
						{
							OFFSET -26.012751 -1.436928 -3.126872
							CHANNELS 3 Zrotation Yrotation Xrotation
							JOINT Right_wrist
							{
								OFFSET -26.910841 0.679372 -0.602677
								CHANNELS 3 Zrotation Yrotation Xrotation
								JOINT Right_palm
								{
									OFFSET -8.875370 -0.865157 -1.010708
									CHANNELS 3 Zrotation Yrotation Xrotation
									End Site
									{
										OFFSET 0.000000 0.000000 0.000000
									}
								}
							}
						}
					}
				}
			}
		}
	}
}
MOTION
Frames: 12
Frame Time: 0.016667
-0.217368 70.178619 2.858379 -2.311142 12.647589 -1.752560 10.463417 -0.125126 2.054103 -4.684780 0.575161 8.398712 5.218196 11.624160 3.578624 0.000000 0.000000 0.000000 -5.606255 0.377084 -4.861801 4.734443 -0.519634 8.091748 -6.300561 -16.639925 10.946281 0.000000 0.000000 0.000000 1.931600 -0.323915 5.346520 2.759170 -0.065663 -23.555043 -3.541973 -3.299474 24.608842 -0.015400 0.378175 -4.734831 0.000000 0.000000 0.000000 8.390559 -20.202243 6.117098 10.328989 -49.672528 -6.660644 110.451095 -15.820803 -20.293174 0.000000 0.000000 0.000000 0.000000 0.000000 0.000000 -12.910059 21.685579 6.070173 -6.915613 33.802123 -3.443213 -106.753888 16.044872 -17.072117 0.000000 0.000000 0.000000 0.000000 0.000000 0.000000 
-0.270677 69.987473 2.899788 -1.764711 14.804075 -1.356559 10.059945 -0.119440 0.166508 -5.017607 0.652610 9.938015 5.784661 12.599601 3.080949 0.000000 0.000000 0.000000 -5.977229 0.358716 -4.627541 5.239843 -0.615897 9.020611 -5.980174 -16.092639 11.442441 0.000000 0.000000 0.000000 2.186596 -0.342180 5.417090 3.250010 -0.207161 -23.186831 -4.314879 -4.180241 24.839398 -1.402915 1.313059 -3.526641 0.000000 0.000000 0.000000 6.739515 -20.242479 6.290811 7.135999 -49.877963 -5.475695 110.495446 -16.576752 -21.307089 0.000000 0.000000 0.000000 0.000000 0.000000 0.000000 -12.231139 23.376049 6.556720 -7.085276 30.595131 -3.065155 -115.014852 19.304216 -24.570579 0.000000 0.000000 0.000000 0.000000 0.000000 0.000000 
-0.283255 69.853523 2.903317 -1.741243 11.281452 -1.950880 9.491776 -0.101313 1.433291 -4.199885 0.491698 10.406304 7.594073 16.006219 3.363304 0.000000 0.000000 0.000000 -6.068376 0.424540 -6.067227 4.334696 -0.444419 10.931450 -5.177322 -14.438779 9.976019 0.000000 0.000000 0.000000 1.462710 -0.389114 7.041587 4.381869 -0.519500 -22.752606 -3.498240 -1.932851 25.261509 -0.960856 1.148739 -6.135049 0.000000 0.000000 0.000000 2.195061 -20.782115 6.926357 3.671502 -49.151686 -4.076844 113.948299 -21.475467 -29.479814 0.000000 0.000000 0.000000 0.000000 0.000000 0.000000 -9.180358 22.719245 6.777866 -6.231897 34.430416 -3.364558 -118.574164 24.119593 -33.615779 0.000000 0.000000 0.000000 0.000000 0.000000 0.000000 
-0.290288 69.559242 2.884291 -1.978574 12.609978 -2.447108 10.785339 -0.129230 0.202796 -5.313765 0.748259 12.733608 7.079171 14.996211 2.843203 0.000000 0.000000 0.000000 -6.206597 0.444365 -6.592507 5.666590 -0.738127 13.014070 -5.146667 -14.353983 9.768864 0.000000 0.000000 0.000000 2.221329 -0.582890 9.368010 4.762274 -0.572185 -23.397815 -3.418962 -1.933591 25.304041 -2.141148 1.988959 -6.337955 0.000000 0.000000 0.000000 1.894578 -19.866287 6.649144 1.056170 -50.392933 -3.203700 117.108132 -18.769500 -27.242183 0.000000 0.000000 0.000000 0.000000 0.000000 0.000000 -9.481519 22.856548 6.777083 -4.970804 35.144793 -3.148593 -120.926494 24.732042 -36.063561 0.000000 0.000000 0.000000 0.000000 0.000000 0.000000 
-0.266808 69.306206 2.777519 -2.083948 12.350919 -2.794305 10.383852 -0.124259 -0.759243 -3.845257 0.418767 15.419813 6.653173 14.034267 1.661617 0.000000 0.000000 0.000000 -6.157988 0.507608 -7.928274 6.712449 -1.026357 15.714017 -5.380849 -14.564295 7.825431 0.000000 0.000000 0.000000 2.732762 -0.750843 11.233895 4.711203 -0.544382 -23.618942 -2.915911 -1.605320 25.332371 -2.215688 1.971231 -4.787962 0.000000 0.000000 0.000000 0.766967 -20.435310 6.958126 0.194057 -51.312883 -2.935593 117.232872 -19.208720 -27.949738 0.000000 0.000000 0.000000 0.000000 0.000000 0.000000 -8.412705 22.928761 6.933114 -2.419935 35.501399 -2.565367 -123.928663 26.886087 -41.667507 0.000000 0.000000 0.000000 0.000000 0.000000 0.000000 
-0.265199 69.221931 2.642180 -1.836711 11.936336 -2.391724 10.186540 -0.124620 -1.379460 -3.958656 0.447559 16.113618 7.236254 15.150662 1.623264 0.000000 0.000000 0.000000 -6.844250 0.513606 -8.869502 7.411569 -1.234707 17.010668 -5.828941 -15.530237 8.536228 0.000000 0.000000 0.000000 3.025626 -0.843357 12.133795 4.518687 -0.525407 -23.188396 -2.650101 -1.096001 25.286689 -2.498321 2.173048 -4.740605 0.000000 0.000000 0.000000 1.613329 -19.900862 6.688375 0.825744 -52.347127 -3.265692 116.504641 -17.891342 -25.666818 0.000000 0.000000 0.000000 0.000000 0.000000 0.000000 -9.741248 23.070293 6.801287 -1.576933 34.900881 -2.313831 -123.651045 24.716439 -37.912080 0.000000 0.000000 0.000000 0.000000 0.000000 0.000000 
-0.268631 69.276863 2.516660 -1.942101 11.615788 -2.765328 10.124674 -0.124242 -1.241042 -4.022031 0.465099 17.064404 6.925205 14.548665 1.588954 0.000000 0.000000 0.000000 -6.743758 0.550645 -9.638774 7.879804 -1.410380 18.715385 -6.118611 -16.118837 8.800833 0.000000 0.000000 0.000000 2.897867 -0.929044 13.631872 4.525964 -0.524609 -23.227845 -2.514895 -0.753196 25.232424 -2.020847 1.792253 -3.993896 0.000000 0.000000 0.000000 1.850897 -19.493692 6.527771 1.769302 -52.866356 -3.697328 116.586393 -18.143604 -26.072952 0.000000 0.000000 0.000000 0.000000 0.000000 0.000000 -9.413353 22.240164 6.619382 -2.210127 36.024963 -2.557975 -122.093640 25.400989 -37.920628 0.000000 0.000000 0.000000 0.000000 0.000000 0.000000 
-0.222162 69.407486 2.555205 -1.868991 10.395392 -2.938665 9.819934 -0.121915 -0.874053 -4.645950 0.630467 17.151344 7.016167 14.805571 2.245835 0.000000 0.000000 0.000000 -6.173453 0.596114 -9.867292 7.560263 -1.342763 19.425723 -5.637725 -15.154652 8.520249 0.000000 0.000000 0.000000 2.870165 -1.009417 14.885212 4.578416 -0.546671 -23.094940 -2.879460 -0.360959 25.072280 -1.830954 1.680973 -4.537375 0.000000 0.000000 0.000000 1.138517 -19.330707 6.538712 2.377445 -51.852869 -3.851763 117.352595 -19.628751 -28.628424 0.000000 0.000000 0.000000 0.000000 0.000000 0.000000 -8.615692 21.819020 6.599136 -3.336160 37.690806 -2.998121 -122.837606 26.398610 -40.054467 0.000000 0.000000 0.000000 0.000000 0.000000 0.000000 
-0.177335 69.441864 2.802874 -1.897499 9.964339 -3.541136 9.809872 -0.116633 0.070840 -4.841260 0.679878 16.896260 6.625676 14.015928 1.906112 0.000000 0.000000 0.000000 -5.903490 0.606229 -9.723258 7.497644 -1.337508 19.864138 -5.341207 -14.512427 8.038498 0.000000 0.000000 0.000000 2.446592 -0.973272 15.247368 4.919994 -0.641108 -22.976077 -2.974665 -0.472599 25.303920 -1.969357 1.801323 -4.947181 0.000000 0.000000 0.000000 1.182395 -18.995431 6.419586 1.784028 -51.810557 -3.609071 117.022758 -20.367409 -29.534975 0.000000 0.000000 0.000000 0.000000 0.000000 0.000000 -8.693176 21.719894 6.562722 -3.676153 38.757417 -3.195697 -121.188639 26.811991 -39.506856 0.000000 0.000000 0.000000 0.000000 0.000000 0.000000 
-0.142103 69.370529 3.324943 -2.227441 9.314586 -4.012128 10.229792 -0.119549 1.314553 -4.412688 0.565126 16.450430 6.335260 13.441408 1.799221 0.000000 0.000000 0.000000 -5.141156 0.616469 -9.050368 6.777271 -1.133082 19.956046 -4.508909 -12.694527 7.102264 0.000000 0.000000 0.000000 2.472202 -0.992382 15.490462 5.325023 -0.705041 -23.498353 -2.964661 -0.381092 25.461220 -2.592076 2.281330 -5.747844 0.000000 0.000000 0.000000 1.041150 -18.508715 6.264754 1.418267 -52.215173 -3.496327 117.406433 -21.825741 -31.874584 0.000000 0.000000 0.000000 0.000000 0.000000 0.000000 -9.074105 21.588766 6.482926 -3.467092 39.623095 -3.223246 -122.161550 27.774082 -41.737458 0.000000 0.000000 0.000000 0.000000 0.000000 0.000000 
-0.114372 69.201477 3.956637 -2.579079 8.874311 -4.199291 10.874498 -0.135804 1.631820 -4.662677 0.631812 16.735354 6.266342 13.173205 0.952961 0.000000 0.000000 0.000000 -4.625382 0.635493 -8.883308 6.749634 -1.130317 20.198607 -4.395271 -12.273000 6.054400 0.000000 0.000000 0.000000 2.915384 -1.065181 15.617604 5.235220 -0.691114 -23.383644 -2.886669 -0.328919 25.191409 -2.730265 2.421133 -6.851295 0.000000 0.000000 0.000000 0.701349 -18.470813 6.280281 1.510818 -52.199966 -3.532661 116.824045 -21.196942 -30.632150 0.000000 0.000000 0.000000 0.000000 0.000000 0.000000 -8.894761 21.497792 6.478561 -3.586708 40.030323 -3.298499 -122.343543 27.806361 -41.927103 0.000000 0.000000 0.000000 0.000000 0.000000 0.000000 
-0.118160 69.140686 4.636349 -2.238132 9.066038 -4.039745 10.926883 -0.140209 2.353218 -4.802008 0.666937 16.593299 6.142782 12.852391 0.494725 0.000000 0.000000 0.000000 -5.085667 0.585317 -8.433472 6.252850 -0.976501 19.601731 -4.076673 -11.355412 4.846222 0.000000 0.000000 0.000000 2.574995 -0.992429 15.260349 5.694842 -0.767062 -23.885004 -3.093488 -0.582855 25.236508 -2.970881 2.605582 -7.359822 0.000000 0.000000 0.000000 0.191921 -18.696867 6.402842 1.424636 -52.818197 -3.550325 116.983578 -21.214516 -30.745992 0.000000 0.000000 0.000000 0.000000 0.000000 0.000000 -8.940691 22.623174 6.781582 -3.698625 38.806795 -3.206920 -122.741100 28.197818 -42.854373 0.000000 0.000000 0.000000 0.000000 0.000000 0.000000 
